<svg xmlns="http://www.w3.org/2000/svg" xmlns:xlink="http://www.w3.org/1999/xlink" version="1.1" id="图层_1" x="0px" y="0px" style="enable-background:new 0 0 841.89 595.28;" xml:space="preserve" viewBox="231.19 240.99 379.47 113.29">
<style type="text/css">
	.st0{fill-rule:evenodd;clip-rule:evenodd;stroke:#000000;stroke-width:0.5669;stroke-miterlimit:22.9256;}
	.st1{fill-rule:evenodd;clip-rule:evenodd;fill:#FFFFFF;}
	.st2{fill-rule:evenodd;clip-rule:evenodd;fill:#38018D;}
	.st3{fill-rule:evenodd;clip-rule:evenodd;fill:#F2FF2A;}
	.st4{fill-rule:evenodd;clip-rule:evenodd;fill:#FF2A0C;}
	.st5{fill-rule:evenodd;clip-rule:evenodd;fill:#8764B1;}
	.st6{fill-rule:evenodd;clip-rule:evenodd;fill:#FF7F15;}
	.st7{fill-rule:evenodd;clip-rule:evenodd;fill:#011806;}
	.st8{fill-rule:evenodd;clip-rule:evenodd;fill:#00984A;}
	.st9{fill-rule:evenodd;clip-rule:evenodd;fill:#FFFFFF;stroke:#000000;stroke-width:0.5669;stroke-miterlimit:22.9256;}
	.st10{fill-rule:evenodd;clip-rule:evenodd;fill:#D0B45F;}
</style>
<g>
	<g>
		<path class="st10" d="M390.45,291.89l-3.59,10.07l-1.8,5.03v9.88h-5.5v-9.68c-0.1-0.89-0.57-2.61-1.41-5.17    c-0.71-2.17-1.77-5.55-3.16-10.12h5.24l2.47,8.8l2.8-8.8H390.45z"/>
		<polygon class="st10" points="403.43,316.87 391.05,316.87 391.05,313.7 397.08,295.14 391.42,295.14 391.42,291.89 403,291.89     403,295.18 397,313.66 403.43,313.66   "/>
		<path class="st10" d="M421.64,316.87h-2.62l-0.71-1.37c-1.21,1.06-2.48,1.59-3.82,1.59c-1.31,0-2.45-0.34-3.43-1.02    c-0.98-0.68-1.47-1.76-1.47-3.25v-16.29c0-3.24,2.06-4.85,6.19-4.85c3.92,0,5.88,1.47,5.88,4.43v4.64h-5v-5.03    c0-0.4-0.26-0.61-0.78-0.61c-0.52,0-0.79,0.2-0.79,0.61v17.27c0,0.4,0.26,0.61,0.79,0.61c0.52,0,0.78-0.2,0.78-0.61v-4.67h-1.07    v-3.82h6.07V316.87z"/>
		<polygon class="st10" points="433.3,316.87 423.03,316.87 423.03,291.89 428.52,291.89 428.52,313.66 433.3,313.66   "/>
		<path class="st10" d="M449.13,316.87h-5.46l-0.92-6.71h-2.43l-0.93,6.71h-5.46l4.09-24.98h7.01L449.13,316.87L449.13,316.87z     M442.31,306.7l-0.78-7.46l-0.75,7.46H442.31z"/>
		<path class="st10" d="M450.08,306.86h5v5.73c0,0.57,0.35,0.86,1.04,0.86c0.67,0,1-0.29,1-0.85v-2.96c0-0.9-0.61-1.97-1.81-3.19    c-2.34-2.26-3.79-3.78-4.36-4.56c-0.57-0.78-0.86-1.63-0.86-2.56v-2.8c0-3.24,2.12-4.85,6.36-4.85c3.8,0,5.7,1.47,5.7,4.43v4.32    h-5v-4.58c0-0.49-0.28-0.74-0.84-0.74c-0.65,0-0.98,0.47-0.98,1.41l0.11,1.62c0,0.93,0.62,2,1.86,3.24    c2.3,2.19,3.76,3.72,4.38,4.59c0.62,0.87,0.93,1.86,0.93,2.96v3.18c0,3.32-2.12,4.98-6.38,4.98c-4.1,0-6.15-1.51-6.15-4.53V306.86    z"/>
		<path class="st10" d="M463.88,306.86h5v5.73c0,0.57,0.35,0.86,1.03,0.86c0.67,0,1-0.29,1-0.85v-2.96c0-0.9-0.61-1.97-1.81-3.19    c-2.34-2.26-3.79-3.78-4.36-4.56c-0.57-0.78-0.86-1.63-0.86-2.56v-2.8c0-3.24,2.12-4.85,6.36-4.85c3.8,0,5.7,1.47,5.7,4.43v4.32    h-5v-4.58c0-0.49-0.28-0.74-0.84-0.74c-0.65,0-0.98,0.47-0.98,1.41l0.11,1.62c0,0.93,0.62,2,1.86,3.24    c2.3,2.19,3.76,3.72,4.38,4.59c0.62,0.87,0.93,1.86,0.93,2.96v3.18c0,3.32-2.12,4.98-6.38,4.98c-4.1,0-6.15-1.51-6.15-4.53V306.86    z"/>
		<polygon class="st10" points="493.53,316.87 482.79,316.87 482.79,291.89 493.46,291.89 493.46,295.1 488.28,295.1 488.28,301.85     492.95,301.85 492.95,304.88 488.28,304.88 488.28,313.66 493.53,313.66   "/>
		<polygon class="st10" points="510.08,316.87 504.19,316.87 501.69,308.84 499.33,316.87 494.09,316.87 498.41,302.68     495.2,291.89 500.48,291.89 502.43,299.14 504.61,291.89 509.55,291.89 505.8,303.46   "/>
		<path class="st10" d="M516.28,307.67v9.21h-5.35v-24.98h5.77c2.28,0,3.98,0.29,5.09,0.87c1.11,0.58,1.67,1.77,1.67,3.56v6.92    c0,1.64-0.45,2.8-1.36,3.47C521.18,307.4,519.25,307.71,516.28,307.67L516.28,307.67z M518.1,302.78v-6    c0-0.88-0.61-1.32-1.82-1.32v8.64C517.49,304.1,518.1,303.66,518.1,302.78z"/>
		<polygon class="st10" points="535.31,316.87 524.57,316.87 524.57,291.89 535.24,291.89 535.24,295.1 530.07,295.1 530.07,301.85     534.74,301.85 534.74,304.88 530.07,304.88 530.07,313.66 535.31,313.66   "/>
		<path class="st10" d="M549.87,316.91h-5.47c-0.59-0.71-0.89-2.72-0.89-6.03v-0.04l0.03-1.5c0.03-2.08,0.04-3.14,0.04-3.19    c0-0.85-0.56-1.27-1.68-1.27v11.99h-5.5v-24.98h6.77c1.55,0,2.89,0.36,4.03,1.06c1.15,0.71,1.72,1.83,1.72,3.35v3    c0,1.94-1.13,3.25-3.4,3.93c2.27,0.54,3.4,1.92,3.4,4.13l-0.07,2.74C548.87,314.11,549.2,316.37,549.87,316.91L549.87,316.91z     M543.58,300.52v-4.11c0-0.87-0.56-1.31-1.68-1.31v6.74C543.03,301.85,543.58,301.41,543.58,300.52z"/>
		<polygon class="st10" points="562.23,295.14 559.16,295.14 559.16,316.87 553.66,316.87 553.66,295.14 550.6,295.14 550.6,291.89     562.23,291.89   "/>
		<polygon class="st10" points="578.83,316.87 568.56,316.87 568.56,291.89 574.05,291.89 574.05,313.66 578.83,313.66   "/>
		<polygon class="st10" points="591.28,295.14 588.21,295.14 588.21,316.87 582.71,316.87 582.71,295.14 579.64,295.14     579.64,291.89 591.28,291.89   "/>
		<path class="st10" d="M592.37,316.87v-24.98h6.84c1.49,0,2.81,0.4,3.98,1.21c1.16,0.8,1.74,2.05,1.74,3.72v15.12    c0,1.56-0.54,2.77-1.63,3.63c-1.09,0.86-2.44,1.3-4.06,1.3H592.37L592.37,316.87z M599.44,312.34v-15.92    c0-0.87-0.52-1.31-1.57-1.31v18.56C598.92,313.66,599.44,313.22,599.44,312.34z"/>
		<rect x="606.13" y="313.23" class="st10" width="4.53" height="3.64"/>
	</g>
	<path class="st10" d="M234.35,286.78l42.98,14.59l0.04,0.01l0.04-0.01l42.98-14.59c-11.3-4.65-27.45-17.97-39.77-20.42   c-2.67-0.53-4.29-0.49-6.99,0.1C261.36,269.17,245.5,282.19,234.35,286.78L234.35,286.78z M275.37,354.27H242.6v-9.86h23.28v-5.27   H247.4l-5.13-42.98l14.19,5.04v10.4l-2.92-1.04l2.23,18.72h10.11v-14.75l-2.31-0.72v-10.28l11.79,3.69   C275.36,322.91,275.37,338.59,275.37,354.27L275.37,354.27z M279.48,318.43V307.7l34.93-11.02l-20.39,47.74h16.86v9.86h-31.72   l17.52-41.05l-7.71,2.26v2.95H279.48L279.48,318.43z M231.19,267.09l46.2-26.1l52.08,28.54l-4.41,10.29l-47.61-26.09l-45.1,25.48   L231.19,267.09z"/>
</g>
</svg>