<svg xmlns="http://www.w3.org/2000/svg" xmlns:xlink="http://www.w3.org/1999/xlink" version="1.1" id="图层_1" x="0px" y="0px" style="enable-background:new 0 0 841.89 595.28;" xml:space="preserve" viewBox="217.48 256.7 393.8 81.88">
<style type="text/css">
	.st0{fill-rule:evenodd;clip-rule:evenodd;fill:#D0B45F;}
	.st1{fill-rule:evenodd;clip-rule:evenodd;stroke:#000000;stroke-width:0.5669;stroke-miterlimit:22.9256;}
	.st2{fill-rule:evenodd;clip-rule:evenodd;fill:#FFFFFF;}
	.st3{fill-rule:evenodd;clip-rule:evenodd;fill:#38018D;}
	.st4{fill-rule:evenodd;clip-rule:evenodd;fill:#F2FF2A;}
	.st5{fill-rule:evenodd;clip-rule:evenodd;fill:#FF2A0C;}
	.st6{fill-rule:evenodd;clip-rule:evenodd;fill:#8764B1;}
	.st7{fill-rule:evenodd;clip-rule:evenodd;fill:#FF7F15;}
	.st8{fill-rule:evenodd;clip-rule:evenodd;fill:#011806;}
	.st9{fill-rule:evenodd;clip-rule:evenodd;fill:#00984A;}
	.st10{fill-rule:evenodd;clip-rule:evenodd;fill:#FFFFFF;stroke:#000000;stroke-width:0.5669;stroke-miterlimit:22.9256;}
	.st11{fill-rule:evenodd;clip-rule:evenodd;}
</style>
<g>
	<path class="st0" d="M219.98,289.79l34.11,10.55l0.03,0.01l0.03-0.01l34.11-10.55c-8.97-3.36-21.78-12.99-31.56-14.76   c-2.12-0.38-3.4-0.36-5.55,0.08C241.42,277.06,228.83,286.47,219.98,289.79L219.98,289.79z M252.54,338.58h-26.01v-7.13H245v-3.81   h-14.67l-4.07-31.07l11.26,3.64v7.52l-2.32-0.75l1.77,13.53H245v-10.66l-1.83-0.52v-7.43l9.36,2.67   C252.53,315.9,252.54,327.24,252.54,338.58L252.54,338.58z M255.8,312.67v-7.76l27.72-7.97l-16.18,34.51h13.38v7.13h-25.17   l13.91-29.68l-6.12,1.63v2.13H255.8L255.8,312.67z M217.48,275.56l36.67-18.86l41.33,20.63l-3.5,7.44l-37.78-18.86l-35.79,18.42   L217.48,275.56z"/>
	<g>
		<path class="st11" d="M391.07,287.86l-3.59,10.07l-1.8,5.03v9.88h-5.5v-9.68c-0.1-0.89-0.57-2.61-1.41-5.17    c-0.71-2.17-1.77-5.55-3.16-10.12h5.24l2.47,8.8l2.8-8.8H391.07z"/>
		<polygon class="st11" points="404.05,312.84 391.67,312.84 391.67,309.66 397.7,291.1 392.04,291.1 392.04,287.86 403.62,287.86     403.62,291.14 397.61,309.62 404.05,309.62   "/>
		<path class="st11" d="M422.26,312.84h-2.62l-0.71-1.37c-1.21,1.06-2.48,1.59-3.82,1.59c-1.31,0-2.45-0.34-3.43-1.02    c-0.98-0.68-1.47-1.76-1.47-3.25v-16.29c0-3.24,2.06-4.85,6.19-4.85c3.92,0,5.88,1.47,5.88,4.43v4.64h-5v-5.03    c0-0.4-0.26-0.61-0.78-0.61c-0.52,0-0.79,0.2-0.79,0.61v17.27c0,0.4,0.26,0.61,0.79,0.61c0.52,0,0.78-0.2,0.78-0.61v-4.67h-1.07    v-3.82h6.07V312.84z"/>
		<polygon class="st11" points="433.92,312.84 423.65,312.84 423.65,287.86 429.14,287.86 429.14,309.62 433.92,309.62   "/>
		<path class="st11" d="M449.75,312.84h-5.46l-0.92-6.71h-2.43l-0.93,6.71h-5.46l4.09-24.98h7.01L449.75,312.84L449.75,312.84z     M442.93,302.66l-0.78-7.46l-0.75,7.46H442.93z"/>
		<path class="st11" d="M450.7,302.82h5v5.73c0,0.57,0.35,0.86,1.04,0.86c0.67,0,1-0.29,1-0.85v-2.96c0-0.9-0.61-1.97-1.81-3.19    c-2.34-2.26-3.79-3.78-4.36-4.56c-0.57-0.78-0.86-1.63-0.86-2.56v-2.8c0-3.24,2.12-4.85,6.36-4.85c3.8,0,5.7,1.47,5.7,4.43v4.32    h-5v-4.58c0-0.49-0.28-0.74-0.84-0.74c-0.65,0-0.98,0.47-0.98,1.41l0.11,1.62c0,0.93,0.62,2,1.86,3.24    c2.3,2.19,3.76,3.72,4.38,4.59c0.62,0.87,0.93,1.86,0.93,2.96v3.18c0,3.32-2.12,4.98-6.38,4.98c-4.1,0-6.15-1.51-6.15-4.53V302.82    z"/>
		<path class="st11" d="M464.49,302.82h5v5.73c0,0.57,0.35,0.86,1.03,0.86c0.67,0,1-0.29,1-0.85v-2.96c0-0.9-0.61-1.97-1.81-3.19    c-2.34-2.26-3.79-3.78-4.36-4.56c-0.57-0.78-0.86-1.63-0.86-2.56v-2.8c0-3.24,2.12-4.85,6.36-4.85c3.8,0,5.7,1.47,5.7,4.43v4.32    h-5v-4.58c0-0.49-0.28-0.74-0.84-0.74c-0.65,0-0.98,0.47-0.98,1.41l0.11,1.62c0,0.93,0.62,2,1.86,3.24    c2.3,2.19,3.76,3.72,4.38,4.59c0.62,0.87,0.93,1.86,0.93,2.96v3.18c0,3.32-2.12,4.98-6.38,4.98c-4.1,0-6.15-1.51-6.15-4.53V302.82    z"/>
		<polygon class="st11" points="494.15,312.84 483.41,312.84 483.41,287.86 494.08,287.86 494.08,291.07 488.9,291.07 488.9,297.81     493.57,297.81 493.57,300.85 488.9,300.85 488.9,309.62 494.15,309.62   "/>
		<polygon class="st11" points="510.7,312.84 504.81,312.84 502.31,304.81 499.95,312.84 494.71,312.84 499.02,298.64     495.82,287.86 501.1,287.86 503.05,295.1 505.23,287.86 510.16,287.86 506.42,299.42   "/>
		<path class="st11" d="M516.9,303.63v9.21h-5.35v-24.98h5.77c2.28,0,3.98,0.29,5.09,0.87c1.11,0.58,1.67,1.77,1.67,3.56v6.92    c0,1.64-0.45,2.8-1.36,3.47C521.8,303.36,519.87,303.68,516.9,303.63L516.9,303.63z M518.72,298.74v-6c0-0.88-0.61-1.32-1.82-1.32    v8.64C518.11,300.06,518.72,299.62,518.72,298.74z"/>
		<polygon class="st11" points="535.93,312.84 525.19,312.84 525.19,287.86 535.86,287.86 535.86,291.07 530.69,291.07     530.69,297.81 535.36,297.81 535.36,300.85 530.69,300.85 530.69,309.62 535.93,309.62   "/>
		<path class="st11" d="M550.48,312.87h-5.47c-0.59-0.71-0.89-2.72-0.89-6.03v-0.04l0.03-1.5c0.03-2.08,0.04-3.14,0.04-3.19    c0-0.85-0.56-1.27-1.68-1.27v11.99h-5.5v-24.98h6.77c1.55,0,2.89,0.36,4.03,1.06c1.15,0.71,1.72,1.83,1.72,3.35v3    c0,1.94-1.13,3.25-3.4,3.93c2.27,0.54,3.4,1.92,3.4,4.13l-0.07,2.74C549.49,310.07,549.82,312.34,550.48,312.87L550.48,312.87z     M544.2,296.49v-4.11c0-0.87-0.56-1.31-1.68-1.31v6.74C543.64,297.81,544.2,297.37,544.2,296.49z"/>
		<polygon class="st11" points="562.85,291.1 559.78,291.1 559.78,312.84 554.28,312.84 554.28,291.1 551.21,291.1 551.21,287.86     562.85,287.86   "/>
		<polygon class="st11" points="579.45,312.84 569.18,312.84 569.18,287.86 574.67,287.86 574.67,309.62 579.45,309.62   "/>
		<polygon class="st11" points="591.89,291.1 588.83,291.1 588.83,312.84 583.33,312.84 583.33,291.1 580.26,291.1 580.26,287.86     591.89,287.86   "/>
		<path class="st11" d="M592.99,312.84v-24.98h6.84c1.49,0,2.81,0.4,3.98,1.21c1.16,0.8,1.74,2.05,1.74,3.72v15.12    c0,1.56-0.54,2.77-1.63,3.63c-1.09,0.86-2.44,1.3-4.06,1.3H592.99L592.99,312.84z M600.06,308.3v-15.92    c0-0.87-0.52-1.31-1.57-1.31v18.56C599.54,309.62,600.06,309.18,600.06,308.3z"/>
		<rect x="606.75" y="309.2" class="st11" width="4.53" height="3.64"/>
	</g>
</g>
</svg>