<svg xmlns="http://www.w3.org/2000/svg" xmlns:xlink="http://www.w3.org/1999/xlink" version="1.1" id="图层_1" x="0px" y="0px" style="enable-background:new 0 0 841.89 595.28;" xml:space="preserve" viewBox="297.11 167.02 235.66 245.25">
<style type="text/css">
	.st0{fill-rule:evenodd;clip-rule:evenodd;fill:#F2FF2A;}
	.st1{fill-rule:evenodd;clip-rule:evenodd;fill:#FF7F15;}
	.st2{fill-rule:evenodd;clip-rule:evenodd;fill:#00984A;}
	.st3{fill-rule:evenodd;clip-rule:evenodd;fill:#FFFFFF;stroke:#000000;stroke-width:0.5669;stroke-miterlimit:22.9256;}
	.st4{fill-rule:evenodd;clip-rule:evenodd;fill:#D0B45F;}
	.st5{fill-rule:evenodd;clip-rule:evenodd;}
</style>
<g id="_x3C_Group_x3E_">
	<path class="st5" d="M312.57,387.07l-3.59,10.07l-1.8,5.03v9.88h-5.5v-9.68c-0.1-0.89-0.57-2.61-1.41-5.17   c-0.71-2.17-1.77-5.55-3.16-10.12h5.24l2.47,8.8l2.8-8.8H312.57z"/>
	<polygon class="st5" points="325.54,412.05 313.16,412.05 313.16,408.87 319.19,390.32 313.53,390.32 313.53,387.07 325.12,387.07    325.12,390.35 319.11,408.84 325.54,408.84  "/>
	<path class="st5" d="M343.75,412.05h-2.62l-0.71-1.37c-1.21,1.06-2.48,1.59-3.82,1.59c-1.31,0-2.45-0.34-3.43-1.02   c-0.98-0.68-1.47-1.76-1.47-3.25v-16.29c0-3.24,2.06-4.85,6.19-4.85c3.92,0,5.88,1.47,5.88,4.43v4.64h-5v-5.03   c0-0.4-0.26-0.61-0.78-0.61c-0.52,0-0.79,0.2-0.79,0.61v17.27c0,0.4,0.26,0.61,0.79,0.61c0.52,0,0.78-0.2,0.78-0.61v-4.67h-1.07   v-3.82h6.07V412.05z"/>
	<polygon class="st5" points="355.42,412.05 345.14,412.05 345.14,387.07 350.63,387.07 350.63,408.84 355.42,408.84  "/>
	<path class="st5" d="M371.25,412.05h-5.46l-0.92-6.71h-2.43l-0.93,6.71h-5.46l4.09-24.98h7.01L371.25,412.05L371.25,412.05z    M364.43,401.88l-0.78-7.46l-0.75,7.46H364.43z"/>
	<path class="st5" d="M372.2,402.03h5v5.73c0,0.57,0.35,0.86,1.04,0.86c0.67,0,1-0.29,1-0.85v-2.96c0-0.9-0.61-1.97-1.81-3.19   c-2.34-2.26-3.79-3.78-4.36-4.56c-0.57-0.78-0.86-1.63-0.86-2.56v-2.8c0-3.24,2.12-4.85,6.36-4.85c3.8,0,5.7,1.47,5.7,4.43v4.32h-5   v-4.58c0-0.49-0.28-0.74-0.84-0.74c-0.65,0-0.98,0.47-0.98,1.41l0.11,1.62c0,0.93,0.62,2,1.86,3.24c2.3,2.19,3.76,3.72,4.38,4.59   c0.62,0.87,0.93,1.86,0.93,2.96v3.18c0,3.32-2.12,4.98-6.38,4.98c-4.1,0-6.15-1.51-6.15-4.53V402.03z"/>
	<path class="st5" d="M385.99,402.03h5v5.73c0,0.57,0.35,0.86,1.03,0.86c0.67,0,1-0.29,1-0.85v-2.96c0-0.9-0.61-1.97-1.81-3.19   c-2.34-2.26-3.79-3.78-4.36-4.56c-0.57-0.78-0.86-1.63-0.86-2.56v-2.8c0-3.24,2.12-4.85,6.36-4.85c3.8,0,5.7,1.47,5.7,4.43v4.32h-5   v-4.58c0-0.49-0.28-0.74-0.84-0.74c-0.65,0-0.98,0.47-0.98,1.41l0.11,1.62c0,0.93,0.62,2,1.86,3.24c2.3,2.19,3.76,3.72,4.38,4.59   c0.62,0.87,0.93,1.86,0.93,2.96v3.18c0,3.32-2.12,4.98-6.38,4.98c-4.1,0-6.15-1.51-6.15-4.53V402.03z"/>
	<polygon class="st5" points="415.64,412.05 404.9,412.05 404.9,387.07 415.57,387.07 415.57,390.28 410.4,390.28 410.4,397.02    415.07,397.02 415.07,400.06 410.4,400.06 410.4,408.84 415.64,408.84  "/>
	<polygon class="st5" points="432.19,412.05 426.31,412.05 423.8,404.02 421.45,412.05 416.21,412.05 420.52,397.85 417.31,387.07    422.59,387.07 424.54,394.31 426.73,387.07 431.66,387.07 427.91,398.64  "/>
	<path class="st5" d="M438.39,402.84v9.21h-5.35v-24.98h5.77c2.28,0,3.98,0.29,5.09,0.87c1.11,0.58,1.67,1.77,1.67,3.56v6.92   c0,1.64-0.45,2.8-1.36,3.47C443.3,402.57,441.36,402.89,438.39,402.84L438.39,402.84z M440.21,397.95v-6   c0-0.88-0.61-1.32-1.82-1.32v8.64C439.6,399.27,440.21,398.83,440.21,397.95z"/>
	<polygon class="st5" points="457.43,412.05 446.68,412.05 446.68,387.07 457.35,387.07 457.35,390.28 452.18,390.28 452.18,397.02    456.85,397.02 456.85,400.06 452.18,400.06 452.18,408.84 457.43,408.84  "/>
	<path class="st5" d="M471.98,412.08h-5.47c-0.59-0.71-0.89-2.72-0.89-6.03v-0.04l0.03-1.5c0.03-2.08,0.04-3.14,0.04-3.19   c0-0.85-0.56-1.27-1.68-1.27v11.99h-5.5v-24.98h6.77c1.55,0,2.89,0.36,4.03,1.06c1.15,0.71,1.72,1.83,1.72,3.35v3   c0,1.94-1.13,3.25-3.4,3.93c2.27,0.54,3.4,1.92,3.4,4.13l-0.07,2.74C470.98,409.28,471.31,411.55,471.98,412.08L471.98,412.08z    M465.7,395.7v-4.11c0-0.87-0.56-1.31-1.68-1.31v6.74C465.14,397.02,465.7,396.58,465.7,395.7z"/>
	<polygon class="st5" points="484.34,390.32 481.27,390.32 481.27,412.05 475.78,412.05 475.78,390.32 472.71,390.32 472.71,387.07    484.34,387.07  "/>
	<polygon class="st5" points="500.95,412.05 490.67,412.05 490.67,387.07 496.17,387.07 496.17,408.84 500.95,408.84  "/>
	<polygon class="st5" points="513.39,390.32 510.32,390.32 510.32,412.05 504.82,412.05 504.82,390.32 501.75,390.32 501.75,387.07    513.39,387.07  "/>
	<path class="st5" d="M514.49,412.05v-24.98h6.84c1.49,0,2.81,0.4,3.98,1.21c1.16,0.8,1.74,2.05,1.74,3.72v15.12   c0,1.56-0.54,2.77-1.63,3.63c-1.09,0.86-2.44,1.3-4.06,1.3H514.49L514.49,412.05z M521.55,407.51v-15.92   c0-0.87-0.52-1.31-1.57-1.31v18.56C521.03,408.84,521.55,408.4,521.55,407.51z"/>
	<rect x="528.24" y="408.41" class="st5" width="4.53" height="3.64"/>
	<path class="st5" d="M328.25,250.01l81.02,26.45l0.07,0.02l0.07-0.02l81.02-26.45c-21.31-8.43-51.74-32.58-74.97-37.02   c-5.02-0.96-8.08-0.89-13.17,0.19C379.18,218.08,349.27,241.7,328.25,250.01L328.25,250.01z M405.59,372.37H343.8V354.5h43.89   v-9.55h-34.84l-9.66-77.92l26.75,9.13V295l-5.51-1.88l4.21,33.94h19.05v-26.75l-4.36-1.31v-18.64l22.23,6.69   C405.57,315.51,405.59,343.94,405.59,372.37L405.59,372.37z M413.33,307.4v-19.47l65.84-19.98l-38.44,86.55h31.78v17.88h-59.79   l33.03-74.43l-14.54,4.1v5.34H413.33L413.33,307.4z M322.31,214.33l87.1-47.31l98.18,51.74l-8.32,18.66l-89.75-47.3L324.5,236.3   L322.31,214.33z"/>
</g>
</svg>