<svg viewBox="297.11 385.293 240.079 26.977" xml:space="preserve" style="max-height:500px" y="0" x="0" id="图层_1" version="1.1" xmlns="http://www.w3.org/2000/svg" width="240.079" height="26.977"><style>.st5{fill-rule:evenodd;clip-rule:evenodd}</style><g id="_x3C_Group_x3E_"><path d="m312.57 387.07-3.59 10.07-1.8 5.03v9.88h-5.5v-9.68c-.1-.89-.57-2.61-1.41-5.17-.71-2.17-1.77-5.55-3.16-10.12h5.24l2.47 8.8 2.8-8.8h4.95zM325.54 412.05h-12.38v-3.18l6.03-18.55h-5.66v-3.25h11.59v3.28l-6.01 18.49h6.43zM343.75 412.05h-2.62l-.71-1.37c-1.21 1.06-2.48 1.59-3.82 1.59-1.31 0-2.45-.34-3.43-1.02-.98-.68-1.47-1.76-1.47-3.25v-16.29c0-3.24 2.06-4.85 6.19-4.85 3.92 0 5.88 1.47 5.88 4.43v4.64h-5v-5.03c0-.4-.26-.61-.78-.61s-.79.2-.79.61v17.27c0 .4.26.61.79.61.52 0 .78-.2.78-.61v-4.67h-1.07v-3.82h6.07v12.37zM355.42 412.05h-10.28v-24.98h5.49v21.77h4.79zM371.25 412.05h-5.46l-.92-6.71h-2.43l-.93 6.71h-5.46l4.09-24.98h7.01l4.1 24.98zm-6.82-10.17-.78-7.46-.75 7.46h1.53zM372.2 402.03h5v5.73c0 .57.35.86 1.04.86.67 0 1-.29 1-.85v-2.96c0-.9-.61-1.97-1.81-3.19-2.34-2.26-3.79-3.78-4.36-4.56-.57-.78-.86-1.63-.86-2.56v-2.8c0-3.24 2.12-4.85 6.36-4.85 3.8 0 5.7 1.47 5.7 4.43v4.32h-5v-4.58c0-.49-.28-.74-.84-.74-.65 0-.98.47-.98 1.41l.11 1.62c0 .93.62 2 1.86 3.24 2.3 2.19 3.76 3.72 4.38 4.59.62.87.93 1.86.93 2.96v3.18c0 3.32-2.12 4.98-6.38 4.98-4.1 0-6.15-1.51-6.15-4.53v-5.7zM385.99 402.03h5v5.73c0 .57.35.86 1.03.86.67 0 1-.29 1-.85v-2.96c0-.9-.61-1.97-1.81-3.19-2.34-2.26-3.79-3.78-4.36-4.56-.57-.78-.86-1.63-.86-2.56v-2.8c0-3.24 2.12-4.85 6.36-4.85 3.8 0 5.7 1.47 5.7 4.43v4.32h-5v-4.58c0-.49-.28-.74-.84-.74-.65 0-.98.47-.98 1.41l.11 1.62c0 .93.62 2 1.86 3.24 2.3 2.19 3.76 3.72 4.38 4.59.62.87.93 1.86.93 2.96v3.18c0 3.32-2.12 4.98-6.38 4.98-4.1 0-6.15-1.51-6.15-4.53v-5.7zM415.64 412.05H404.9v-24.98h10.67v3.21h-5.17v6.74h4.67v3.04h-4.67v8.78h5.24zM432.19 412.05h-5.88l-2.51-8.03-2.35 8.03h-5.24l4.31-14.2-3.21-10.78h5.28l1.95 7.24 2.19-7.24h4.93l-3.75 11.57zM438.39 402.84v9.21h-5.35v-24.98h5.77c2.28 0 3.98.29 5.09.87 1.11.58 1.67 1.77 1.67 3.56v6.92c0 1.64-.45 2.8-1.36 3.47-.91.68-2.85 1-5.82.95zm1.82-4.89v-6c0-.88-.61-1.32-1.82-1.32v8.64c1.21 0 1.82-.44 1.82-1.32zM457.43 412.05h-10.75v-24.98h10.67v3.21h-5.17v6.74h4.67v3.04h-4.67v8.78h5.25zM471.98 412.08h-5.47c-.59-.71-.89-2.72-.89-6.03v-.04l.03-1.5c.03-2.08.04-3.14.04-3.19 0-.85-.56-1.27-1.68-1.27v11.99h-5.5v-24.98h6.77c1.55 0 2.89.36 4.03 1.06 1.15.71 1.72 1.83 1.72 3.35v3c0 1.94-1.13 3.25-3.4 3.93 2.27.54 3.4 1.92 3.4 4.13l-.07 2.74c.02 4.01.35 6.28 1.02 6.81zm-6.28-16.38v-4.11c0-.87-.56-1.31-1.68-1.31v6.74c1.12 0 1.68-.44 1.68-1.32zM484.34 390.32h-3.07v21.73h-5.49v-21.73h-3.07v-3.25h11.63zM500.95 412.05h-10.28v-24.98h5.5v21.77h4.78zM513.39 390.32h-3.07v21.73h-5.5v-21.73h-3.07v-3.25h11.64zM514.49 412.05v-24.98h6.84c1.49 0 2.81.4 3.98 1.21 1.16.8 1.74 2.05 1.74 3.72v15.12c0 1.56-.54 2.77-1.63 3.63-1.09.86-2.44 1.3-4.06 1.3h-6.87zm7.06-4.54v-15.92c0-.87-.52-1.31-1.57-1.31v18.56c1.05 0 1.57-.44 1.57-1.33zM528.24 408.41h4.53v3.64h-4.53zM328.25 250.01l81.02 26.45.07.02.07-.02 81.02-26.45c-21.31-8.43-51.74-32.58-74.97-37.02-5.02-.96-8.08-.89-13.17.19-23.11 4.9-53.02 28.52-74.04 36.83zm77.34 122.36H343.8V354.5h43.89v-9.55h-34.84l-9.66-77.92 26.75 9.13V295l-5.51-1.88 4.21 33.94h19.05v-26.75l-4.36-1.31v-18.64l22.23 6.69c.01 28.46.03 56.89.03 85.32zm7.74-64.97v-19.47l65.84-19.98-38.44 86.55h31.78v17.88h-59.79l33.03-74.43-14.54 4.1v5.34h-17.88v.01zm-91.02-93.07 87.1-47.31 98.18 51.74-8.32 18.66-89.75-47.3-85.02 46.18-2.19-21.97z" class="st5"/></g></svg>